<svg xmlns="http://www.w3.org/2000/svg" width="30" height="29.241" viewBox="0 0 30 29.241"><path d="M12.3,31.241a1.3,1.3,0,0,0,.788-1.2V26.522a3.359,3.359,0,0,1,.027-.4l-.027.007H10.739a2.349,2.349,0,0,1-2.217-1.174c-.457-.848-.652-2.283-1.826-3.065-.2-.13-.065-.326.326-.326a3.572,3.572,0,0,1,1.761,1.3A2.755,2.755,0,0,0,11,24.174a7.079,7.079,0,0,0,3.014-.362,3.108,3.108,0,0,1,2.333-1.595V22.2c-3.7-.119-6.058-1.347-7.158-3.245a39.36,39.36,0,0,0-5.659.461q-.057-.32-.1-.644a39.953,39.953,0,0,1,5.442-.466,5.323,5.323,0,0,1-.19-.554,42.147,42.147,0,0,0-5.339.063c-.013-.217-.031-.432-.033-.652a42.73,42.73,0,0,1,5.229-.072,6.412,6.412,0,0,1-.085-1.006,5.615,5.615,0,0,1,1.109-3.261c-.326-1.109-.783-3.457.13-4.3a5.432,5.432,0,0,1,3.587,1.37A9.665,9.665,0,0,1,17,9.174a9.116,9.116,0,0,1,3.652.717,5.432,5.432,0,0,1,3.587-1.37c.978.913.457,3.261.13,4.3a5,5,0,0,1,1.043,3.261,6.5,6.5,0,0,1-.072.919,43.082,43.082,0,0,1,5.35.067c0,.22-.022.434-.033.652a42.255,42.255,0,0,0-5.452-.058,5.4,5.4,0,0,1-.212.639,40.537,40.537,0,0,1,5.575.449q-.042.325-.1.644a39.746,39.746,0,0,0-5.791-.445c-1.086,1.877-3.4,3.1-7.028,3.244v.02c1.7,0,3.261,2.543,3.261,4.3v3.522a1.3,1.3,0,0,0,.788,1.2,15,15,0,1,0-9.4,0Z" transform="translate(-2 -2)" fill="#fefffe"/></svg>