<svg xmlns="http://www.w3.org/2000/svg" width="30" height="30" viewBox="0 0 30 30"><path d="M30.429,4H7.571A3.573,3.573,0,0,0,4,7.571V30.429A3.573,3.573,0,0,0,7.571,34H30.429A3.573,3.573,0,0,0,34,30.429V7.571A3.573,3.573,0,0,0,30.429,4ZM13.286,15.429V29H9V15.429ZM9,11.479a1.9,1.9,0,0,1,2.143-1.764,1.932,1.932,0,0,1,2.143,1.764,1.9,1.9,0,0,1-2.143,1.807A1.933,1.933,0,0,1,9,11.479ZM29,29H24.714V21.857c0-1.429-.714-2.857-2.5-2.886h-.057c-1.729,0-2.443,1.471-2.443,2.886V29H15.429V15.429h4.286v1.829a5.35,5.35,0,0,1,4.15-1.829c2.836,0,5.136,1.95,5.136,5.9Z" transform="translate(-4 -4)" fill="#fefffe"/></svg>