<svg xmlns="http://www.w3.org/2000/svg" width="490.853" height="423.611" viewBox="0 0 490.853 423.611"><g transform="translate(0 0)"><circle cx="45.197" cy="45.197" r="45.197" transform="translate(222.73 27.577)" fill="#a0616a"/><path d="M578.039,260.562s8.515,64.193-4.585,71.4,77.948,7.86,77.948,7.86-20.306-55.678-11.135-72.708Z" transform="translate(-343.846 -165.189)" fill="#a0616a"/><path d="M679.882,368.849l-7.572,34.48L656.3,476.279l-.479,4-5.525,46.25-3.675,30.725-2.465,20.639c-14.984,7.7-25.845,13.018-25.845,13.018s-.934-4.683-2.44-10.676c-10.516,3.153-29.975,8.383-46.465,9.428,6,6.693,8.764,12.981,5.021,17.621-11.3,13.989-57.934-15.316-74.246-26.244a44.15,44.15,0,0,0-.43,7.9l-12.483-9.6,1.235-22.089,2.084-37.375L493.2,473a49.21,49.21,0,0,1-2.071-6.165c-3.823-13.6-8.463-40.743-12.022-63.509-2.864-18.322-5.015-33.8-5.47-37.1-.061-.43-.092-.652-.092-.652l69.1-30.534c4.911,11.389,27.842,14.812,27.842,14.812,19-1.309,33.89-11.327,33.89-11.327Z" transform="translate(-305.841 -193.893)" fill="#d0cde1"/><path d="M665.668,716.831s-2.926,1-7.683,2.422c-10.516,3.153-29.975,8.383-46.465,9.428-14.2.91-26.2-1.279-28.389-10.541-.94-3.983.393-7.259,3.3-9.951,8.678-8.045,31.346-10.928,49.323-11.917,5.077-.277,9.772-.406,13.681-.455,6.638-.086,10.989.049,10.989.049l.1.406Z" transform="translate(-347.957 -332.916)" fill="#a0616a"/><path d="M567.931,135.411l-8.451-3.383s17.67-19.453,42.254-17.762l-6.914-7.612s16.9-6.766,32.266,11c8.077,9.337,17.422,20.312,23.248,32.675h9.05l-3.777,8.317,13.22,8.317-13.569-1.494a46.477,46.477,0,0,1,.368,13.8,17.849,17.849,0,0,1-6.536,11.677h0s-10.48-21.693-10.48-25.077v8.458s-8.451-7.612-8.451-12.687l-4.609,5.92-2.3-9.3-28.425,9.3,4.609-7.612-17.67,2.537,6.914-9.3s-19.974,11-20.743,20.3-6.615,18.119-6.615,18.119S545.652,148.1,567.931,135.411Z" transform="translate(-337.604 -105.389)" fill="#2f2e41"/><path d="M811.152,548.562c-4.6,4.991-16.011,12.508-29.84,20.645-5.144,3.024-10.621,6.14-16.208,9.238-13.331,7.394-27.289,14.72-38.807,20.639-14.984,7.7-25.845,13.018-25.845,13.018s-.934-4.683-2.44-10.676c-2.016-8.021-5.052-18.389-8.217-22.981-.111-.16-.221-.307-.332-.455-.922-1.211-1.85-1.918-2.766-1.918l45.74-28.352L752.2,535.464,737.963,501.47,720.1,458.827l10.78-34.3,10.836-34.48h20.307s6.724,14.677,15.322,35.144c1.285,3.061,2.612,6.251,3.964,9.545C799,477.758,821.053,537.837,811.152,548.562Z" transform="translate(-387.985 -215.089)" fill="#d0cde1"/><path d="M587.57,742.655c-11.3,13.989-57.934-15.316-74.246-26.244-3.552-2.379-5.667-3.884-5.667-3.884l14.923-19.9,4.726-6.3s4.229,2.243,10.479,5.894c.227.135.455.27.688.406,5.39,3.165,12.157,7.3,18.986,11.918,9.422,6.374,18.949,13.645,25.089,20.492C588.553,731.727,591.313,738.015,587.57,742.655Z" transform="translate(-318.987 -329.269)" fill="#a0616a"/><path d="M489.05,576.4a29.366,29.366,0,0,0-4.978.406c-14.13,2.428-18.3,15.218-19.484,23.786a44.155,44.155,0,0,0-.43,7.9l-12.483-9.6-4.548-3.5c-10.946-3.817-20.7-10.6-29.158-18.592a146.572,146.572,0,0,1-19.637-23.288,205.365,205.365,0,0,1-15.193-26.06,19.166,19.166,0,0,1-.264-16.257l15.458-34.45,22.593-50.35q.249-1.8.547-3.516c4.481-25.691,16.484-37.1,16.484-37.1h9.17l6.134,37.1,7.621,46.09-5.341,17.418L443.2,526.619l11.795,12.809Z" transform="translate(-270.25 -213.448)" fill="#d0cde1"/><path d="M560.575,507.182l7.839,9.146c2.913-.555,5.954-1.208,9.087-1.941l-2.252-7.205,5.505,6.423c33.188-8.163,74.324-24.033,74.324-24.033s-44.411,3.256-77.57-3.988c-14.672-3.205-29.766,4.068-35.787,17.826-3.5,8-2.95,14.925,9.461,14.925a81.977,81.977,0,0,0,12.509-1.177Z" transform="translate(-331.397 -251.619)" fill="#9b94db"/><path d="M681.895,759.293v3.731a8.2,8.2,0,0,1-.559,2.993,8.4,8.4,0,0,1-.6,1.229,8.259,8.259,0,0,1-7.1,4.032H399.181a8.259,8.259,0,0,1-7.1-4.032,8.4,8.4,0,0,1-.6-1.229,8.2,8.2,0,0,1-.559-2.993v-3.731a8.252,8.252,0,0,1,8.254-8.254H415V749.3a.344.344,0,0,1,.344-.344H423.6a.344.344,0,0,1,.344.344v1.739H429.1V749.3a.344.344,0,0,1,.344-.344H437.7a.344.344,0,0,1,.344.344v1.739h5.163V749.3a.344.344,0,0,1,.344-.344h8.254a.343.343,0,0,1,.344.344v1.739h5.157V749.3a.344.344,0,0,1,.344-.344H465.9a.344.344,0,0,1,.344.344v1.739h5.157V749.3a.344.344,0,0,1,.344-.344H480a.344.344,0,0,1,.344.344v1.739h5.163V749.3a.343.343,0,0,1,.344-.344h8.254a.344.344,0,0,1,.344.344v1.739h5.157V749.3a.344.344,0,0,1,.344-.344h64.658a.343.343,0,0,1,.344.344v1.739h5.163V749.3a.344.344,0,0,1,.344-.344h8.254a.348.348,0,0,1,.344.344v1.739h5.157V749.3a.343.343,0,0,1,.344-.344h8.254a.344.344,0,0,1,.344.344v1.739h5.157V749.3a.344.344,0,0,1,.344-.344h8.254a.344.344,0,0,1,.344.344v1.739h5.163V749.3a.343.343,0,0,1,.344-.344h8.254a.342.342,0,0,1,.338.344v1.739h5.163V749.3a.344.344,0,0,1,.344-.344h8.254a.344.344,0,0,1,.344.344v1.739h5.157V749.3a.343.343,0,0,1,.344-.344h8.254a.344.344,0,0,1,.344.344v1.739H673.64a8.252,8.252,0,0,1,8.254,8.254Z" transform="translate(-274.001 -353.406)" fill="#3f3d56"/><rect width="450.517" height="1.229" transform="translate(37.185 412.611)" fill="#3f3d56"/><path d="M666.405,508.823h-102.3v-2.108H517.719v2.108H415a6.92,6.92,0,0,0-6.92,6.92V655.822a6.92,6.92,0,0,0,6.92,6.92H666.405a6.92,6.92,0,0,0,6.92-6.92V515.743a6.92,6.92,0,0,0-6.92-6.92Z" transform="translate(-280.611 -260.051)" fill="#3f3d56"/><circle cx="15.366" cy="15.366" r="15.366" transform="translate(244.926 282.311)" fill="none" stroke="#d0cde1" stroke-miterlimit="10" stroke-width="2"/><circle cx="15.366" cy="15.366" r="15.366" transform="translate(240.009 287.843)" fill="#d0cde1"/><rect width="17.209" height="17.209" transform="translate(49.444 406.401)" fill="#d0cde1"/><path d="M292.136,744.612v20.9h20.9v-20.9ZM312.123,764.6H293.039V745.522h19.084Z" transform="translate(-235.929 -351.732)" fill="#3f3d56"/><rect width="17.209" height="17.209" transform="translate(447.718 406.401)" fill="#d0cde1"/><path d="M940.136,744.612v20.9h20.9v-20.9ZM960.124,764.6H941.04V745.522h19.084Z" transform="translate(-485.655 -351.732)" fill="#3f3d56"/><circle cx="48.764" cy="48.764" r="48.764" transform="translate(9.367 43.904)" fill="#9b94db"/><path d="M286.316,161.615a52.707,52.707,0,0,0-13.3,0A51.855,51.855,0,0,0,230.23,197.7a51.152,51.152,0,0,0-2.246,13.314c-.022.628-.037,1.263-.037,1.9a51.772,51.772,0,0,0,51.72,51.72c1.1,0,2.2-.037,3.288-.1a51.158,51.158,0,0,0,7.581-1.049,51.726,51.726,0,0,0-4.219-101.865Zm9.539,98.866h-.007a49.729,49.729,0,0,1-12.893,2.564c-1.086.074-2.187.111-3.288.111a50.3,50.3,0,0,1-50.242-50.242c0-.635.015-1.271.037-1.9a50.242,50.242,0,1,1,66.393,49.466Z" transform="translate(-211.192 -126.895)" fill="#3f3d56"/><rect width="1.478" height="10.344" transform="translate(67.736 38.732)" fill="#3f3d56"/><rect width="1.478" height="10.344" transform="translate(34.517 53.104) rotate(-45)" fill="#3f3d56"/><rect width="1.478" height="10.344" transform="translate(21.189 86.757) rotate(-90)" fill="#3f3d56"/><rect width="1.478" height="10.344" transform="translate(35.561 119.977) rotate(-135)" fill="#3f3d56"/><rect width="1.478" height="10.344" transform="translate(95.119 60.417) rotate(-135)" fill="#3f3d56"/><rect width="1.478" height="10.344" transform="translate(105.418 86.758) rotate(-90)" fill="#3f3d56"/><rect width="1.478" height="10.344" transform="translate(94.076 112.663) rotate(-45)" fill="#3f3d56"/><rect width="1.478" height="10.344" transform="translate(67.736 122.961)" fill="#3f3d56"/><path d="M312,240.071a3.694,3.694,0,0,0-4.433,0,3.8,3.8,0,0,0-1.057,1.241,3.695,3.695,0,1,0,5.49-1.241Zm-2.217,5.172a2.223,2.223,0,0,1-2.217-2.217,2.256,2.256,0,0,1,.392-1.256,2.214,2.214,0,1,1,1.825,3.473Z" transform="translate(-241.304 -157.008)" fill="#3f3d56"/><rect width="13.299" height="13.299" transform="translate(61.825 21.738)" fill="#3f3d56"/><ellipse cx="17.732" cy="6.28" rx="17.732" ry="6.28" transform="translate(50.742 11.394)" fill="#3f3d56"/><rect width="4.433" height="25.121" transform="translate(66.258 57.942)" fill="#3f3d56"/><rect width="138.904" height="1.478" transform="translate(0 135.487)" fill="#3f3d56"/><path d="M318.577,677.645c.574,19.637-10.9,26.834-25.3,27.254q-.5.015-1,.018-1,.008-1.984-.033c-13.023-.541-23.331-7.453-23.864-25.716-.552-18.9,22.906-43.455,24.666-45.272l0,0,.1-.1S318,658.009,318.577,677.645Z" transform="translate(-226.019 -309.024)" fill="#b7f2c9"/><path d="M301.243,701.925l9.147-13.6-9.128,15.066.019,1.531q-1,.008-1.984-.033l.454-19.675-.012-.152.017-.029.043-1.859-10.017-14.543,10.005,13.152.036.393.343-14.865-8.652-15.078L300.19,664.7l-.091-30.8v-.1l0,.1.574,24.272,7.885-9.859L300.7,660.26l.172,13.3,7.256-12.977L300.9,675.511l.1,7.394,10.552-18.077-10.52,20.656Z" transform="translate(-235.022 -309.026)" fill="#3f3d56"/><path d="M966.577,677.645c.573,19.637-10.9,26.834-25.3,27.254q-.5.015-1,.018-1,.008-1.984-.033c-13.023-.541-23.331-7.453-23.865-25.716-.552-18.9,22.906-43.455,24.666-45.272l0,0,.1-.1S966,658.009,966.577,677.645Z" transform="translate(-475.745 -309.024)" fill="#b7f2c9"/><path d="M949.243,701.925l9.147-13.6-9.128,15.066.019,1.531q-1,.008-1.984-.033l.454-19.675-.012-.152.017-.029.043-1.859-10.017-14.543,10.005,13.152.036.393.343-14.865-8.652-15.078L948.19,664.7l-.091-30.8v-.1l0,.1.574,24.272,7.885-9.859L948.7,660.26l.172,13.3,7.256-12.977L948.9,675.511l.1,7.394,10.552-18.077-10.52,20.656Z" transform="translate(-484.748 -309.026)" fill="#3f3d56"/></g></svg>