<svg xmlns="http://www.w3.org/2000/svg" width="663.56" height="436.845" viewBox="0 0 663.56 436.845"><g transform="translate(-0.011 0)"><path d="M547.077,320.8q-1.147,6.031-2.751,11.94c-.116.457-.246.908-.375,1.365H529.074a4.784,4.784,0,0,0-4.779,4.779V381.29c-.451.84-.908,1.673-1.365,2.505-2.362,4.3-4.82,8.554-7.332,12.753A484.8,484.8,0,0,1,349.236,562.814l4.042-9.121-4.451-.307c-32.257-2.205-64.623-4.649-96.122-11.9-32.953-7.585-65.189-20.74-91.015-42.551s-44.77-52.976-47.4-86.687a98.909,98.909,0,0,1,3.461-34.414c6.055-21.518,19.286-40.879,38.374-52.334,29.983-17.989,69.094-14.323,100.7.642s57.325,39.718,82.441,64.049A318.417,318.417,0,0,0,236.245,282.656c-14.036-8.984-28.932-16.985-40.865-28.625s-20.726-27.942-18.617-44.47c2.4-18.746,17.75-32.973,33.13-43.944,6.144-4.383,12.486-8.54,19.026-12.363,18.453-10.814,38.414-18.972,59.5-22,28.557-4.1,59.4,2.123,81.294,20.911,24.665,21.17,34.782,55.311,33.82,87.97,15.2-22.092,38.633-39,65.1-39.718,27.478-.737,53.6,16.623,67.36,40.422S552.217,293.8,547.077,320.8Z" transform="translate(-113.998 -130.052)" fill="#188b83"/><path d="M493.188,449.835c16.094-1.417,30.961-3.073,46.556-7.486,15.117-4.278,29.663-11.438,40.425-23.131,11.575-12.576,17.823-28.908,22.231-45.167,2.458-9.065,4.477-18.256,6.383-27.451q3.1-14.964,5.511-30.061,4.8-30.05,6.849-60.454.248-3.691.455-7.384c.085-1.519-2.277-1.514-2.362,0q-1.686,29.97-6.066,59.706c-2.881,19.477-6.568,38.869-11.245,58-3.963,16.2-9.093,32.662-19.256,46.151-9.53,12.65-23.294,20.916-38.156,25.858-15.123,5.029-31.069,7.037-46.872,8.53-1.939.183-2.513.358-4.453.529-1.5.132-1.516,2.5,0,2.362Z" transform="translate(-233.959 -167.341)" fill="#fff"/><path d="M120.96,494.462a256.012,256.012,0,0,1,59.872,10.55,258.743,258.743,0,0,1,55.759,24.27,252.429,252.429,0,0,1,46.955,35.353,258.645,258.645,0,0,1,36.679,43.734,256.076,256.076,0,0,1,26.247,50.882q1.247,3.284,2.4,6.6c.5,1.426,2.781.813,2.278-.628a258.5,258.5,0,0,0-25.074-52.148A261.859,261.859,0,0,0,290.1,567.753,255.3,255.3,0,0,0,244.169,531.1,260.727,260.727,0,0,0,128.4,492.612q-3.718-.312-7.444-.513c-1.519-.083-1.514,2.279,0,2.362Z" transform="translate(-115.843 -244.936)" fill="#fff"/><path d="M282.884,167.007a139.129,139.129,0,0,1,36.524,17.848,171.52,171.52,0,0,1,31.179,27.69,229.55,229.55,0,0,1,25.819,35.582,303.564,303.564,0,0,1,20.528,41.736,377.654,377.654,0,0,1,14.95,45.395,424.274,424.274,0,0,1,9.559,47.429,423.419,423.419,0,0,1,4.115,47.7,377.855,377.855,0,0,1-1.351,45.756,291.444,291.444,0,0,1-6.87,42.125,199.042,199.042,0,0,1-12.394,36.426q-1.841,3.987-3.906,7.865c-.714,1.341,1.324,2.536,2.04,1.192a182.073,182.073,0,0,0,13.95-35.11,271.9,271.9,0,0,0,8.319-41.3,359.344,359.344,0,0,0,2.749-45.664,418.973,418.973,0,0,0-2.859-47.984,432.221,432.221,0,0,0-8.322-47.946A391.244,391.244,0,0,0,403,299.049a324.9,324.9,0,0,0-19.348-42.972,249.106,249.106,0,0,0-24.81-37.446A184.722,184.722,0,0,0,328.533,188.6a146.562,146.562,0,0,0-35.544-20.5q-4.674-1.86-9.477-3.365c-1.453-.457-2.075,1.822-.628,2.278Z" transform="translate(-167.324 -141.037)" fill="#fff"/><ellipse cx="168.964" cy="6.827" rx="168.964" ry="6.827" transform="translate(86.707 423.191)" fill="#e6e6e6"/><path d="M686.619,444.167a7.183,7.183,0,0,0-.163,1.12l-29.326,16.918L650,458.1l-7.6,9.948,15.249,10.869,33.457-26.394a7.165,7.165,0,1,0-4.489-8.357Z" transform="translate(-281.667 -227.973)" fill="#ffb8b8"/><path d="M607.564,454.271l23.091,16.458,10.328-12.948-22.447-18.011a9.1,9.1,0,0,0-13.1,1.815h0a9.1,9.1,0,0,0,2.128,12.687Z" transform="translate(-269.401 -227.696)" fill="#9b94db"/><path d="M425.519,592.442l8.1,2.121,12.036-30.218L433.7,561.213Z" transform="translate(-135.022 -178.083)" fill="#ffb8b8"/><path d="M0,0H26.3V10.163H10.163A10.163,10.163,0,0,1,0,0H0Z" transform="matrix(-0.967, -0.253, 0.253, -0.967, 312.239, 428.09)" fill="#2f2e41"/><path d="M528.3,599.62l8.239-1.472-1.756-32.48-12.16,2.172Z" transform="translate(-165.836 -179.497)" fill="#ffb8b8"/><path d="M0,0H26.3V10.163H10.163A10.163,10.163,0,0,1,0,0H0Z" transform="translate(387.96 423.464) rotate(169.872)" fill="#2f2e41"/><path d="M614.493,394.605c2.03.494,3.682,2.563,4.674,4.96a34.594,34.594,0,0,1,1.846,7.792c.779,4.954,1.528,10.317-.084,14.905-1.889,5.378-6.924,8.194-11.291,6.871s-7.84-6.292-9.027-12.011a29.089,29.089,0,0,1,2-17.125c1.241-2.824,2.951-5.43,5.223-6.7a5.154,5.154,0,0,1,6.873,1.432" transform="translate(-268.249 -213.347)" fill="#2f2e41"/><path d="M606.112,526.948,621.8,667.44l-12.955,4.919-23.894-94.21-33.266,86.139-14.181.788S556.959,531.044,571.378,528Z" transform="translate(-248.38 -255.995)" fill="#2f2e41"/><circle cx="16.767" cy="16.767" r="16.767" transform="translate(327.789 165.653)" fill="#ffb8b8"/><path d="M614.78,431.029l-18.12-2.363s-11.817,14.18-11.029,38.6-1.97,31.906-1.97,31.906l37.78.683C615.98,492.348,638.824,449.218,614.78,431.029Z" transform="translate(-263.027 -224.808)" fill="#9b94db"/><path d="M624.7,520.481a7.186,7.186,0,0,0-1.127.1L600.389,495.9l2.363-7.878L591.329,482.9l-7.091,17.332,33.35,26.529a7.165,7.165,0,1,0,7.108-6.283Z" transform="translate(-263.21 -242.019)" fill="#ffb8b8"/><path d="M601.322,443.563l-10.736,26.245,14.968,7.09,12.4-25.973a9.1,9.1,0,0,0-4.765-12.337h0a9.1,9.1,0,0,0-11.863,4.975Z" transform="translate(-265.225 -227.741)" fill="#9b94db"/><path d="M599.815,402.9c2.627-1.516,2.907-5.172,2.55-8.184s-.953-6.37.817-8.833c2.113-2.939,6.358-3,9.977-3.094s8.026-1.156,8.963-4.652c.62-2.31-.706-4.79-2.608-6.24a18.3,18.3,0,0,0-6.595-2.7c-5.174-1.363-10.517-2.738-15.815-1.989a20.163,20.163,0,0,0-17.178,22.515c.858,6.725,2.1,9.662,1.285,12.627-1.521,5.523-8.077,9.071-8.207,14.8-.1,4.48,3.855,7.936,7.715,10.21a25.9,25.9,0,0,0,9.9,3.758,12.618,12.618,0,0,0,9.957-2.778c3.391-3.085,4.229-8.239,3.257-12.719s-3.466-8.458-5.934-12.322" transform="translate(-259.645 -205.24)" fill="#2f2e41"/><path d="M961.5,426.948H719.144A6.153,6.153,0,0,0,713,433.092V588.743a6.153,6.153,0,0,0,6.144,6.144H961.5a6.153,6.153,0,0,0,6.144-6.144V433.092A6.153,6.153,0,0,0,961.5,426.948Zm4.779,161.8a4.784,4.784,0,0,1-4.779,4.779H719.144a4.784,4.784,0,0,1-4.779-4.779V433.092a4.784,4.784,0,0,1,4.779-4.779H961.5a4.784,4.784,0,0,1,4.779,4.779Z" transform="translate(-304.069 -224.263)" fill="#3f3d56"/><path d="M777.31,517.279H739.08a5.81,5.81,0,0,1-5.8-5.8v-38.23a5.81,5.81,0,0,1,5.8-5.8h38.23a5.81,5.81,0,0,1,5.8,5.8v38.23A5.81,5.81,0,0,1,777.31,517.279Z" transform="translate(-310.503 -237.113)" fill="#9b94db"/><path d="M955.541,595.828H738.45a4.437,4.437,0,0,1,0-8.875H955.543a4.437,4.437,0,0,1,0,8.875Z" transform="translate(-310.737 -275.035)" fill="#ccc"/><path d="M955.76,564.328H738.667a4.437,4.437,0,0,1,0-8.875H955.76a4.437,4.437,0,1,1,0,8.875Z" transform="translate(-310.806 -265.04)" fill="#ccc"/><path d="M884.75,521.318H852.664a4.437,4.437,0,0,1,0-8.875H884.75a4.437,4.437,0,1,1,0,8.875Z" transform="translate(-346.979 -251.392)" fill="#ccc"/><path d="M991.934,489.328H852.667a4.437,4.437,0,1,1,0-8.875H991.934a4.437,4.437,0,0,1,0,8.875Z" transform="translate(-346.98 -241.241)" fill="#ccc"/><path d="M843.047,627.828H738.45a4.437,4.437,0,0,1,0-8.875h104.6a4.437,4.437,0,1,1,0,8.875Z" transform="translate(-310.737 -285.19)" fill="#ccc"/></g></svg>