<svg xmlns="http://www.w3.org/2000/svg" width="472.395" height="386.568" viewBox="0 0 472.395 386.568"><g transform="translate(-53.225 0)"><path d="M591.345,584.643V678h-233.9c-26.65,0-48.332-20.941-48.332-46.679s21.682-46.68,48.332-46.68Z" transform="translate(-250.862 -294.307)" fill="#f2f2f2"/><path d="M595.117,676.438a3.592,3.592,0,0,1-3.591,3.591H351.307a49.193,49.193,0,0,1,0-98.386h240.22a3.591,3.591,0,0,1,0,7.181H351.307a42.012,42.012,0,0,0,0,84.023h240.22A3.592,3.592,0,0,1,595.117,676.438Z" transform="translate(-248.889 -293.461)" fill="#9b94db"/><path d="M603.183,614.079H351.832a.718.718,0,0,1,0-1.436H603.183a.718.718,0,0,1,0,1.436Z" transform="translate(-262.7 -302.199)" fill="#ccc"/><path d="M603.183,638.079H351.832a.718.718,0,0,1,0-1.436H603.183a.718.718,0,0,1,0,1.436Z" transform="translate(-262.7 -308.963)" fill="#ccc"/><path d="M603.183,662.079H351.832a.718.718,0,0,1,0-1.436H603.183a.718.718,0,0,1,0,1.436Z" transform="translate(-262.7 -315.728)" fill="#ccc"/><path d="M603.183,686.079H351.832a.718.718,0,0,1,0-1.436H603.183a.718.718,0,0,1,0,1.436Z" transform="translate(-262.7 -322.492)" fill="#ccc"/><path d="M852.146,547.212l-58.576,72.7L611.438,473.156c-20.752-16.721-24.5-46.631-8.348-66.673s46.171-22.744,66.923-6.024Z" transform="translate(-330.893 -239.302)" fill="#f2f2f2"/><path d="M796.534,621.3a3.592,3.592,0,0,1-5.049.543L604.431,471.125a49.193,49.193,0,0,1,61.729-76.611L853.215,545.233a3.591,3.591,0,0,1-4.506,5.592L661.654,400.107a42.012,42.012,0,0,0-52.718,65.427L795.991,616.253A3.592,3.592,0,0,1,796.534,621.3Z" transform="translate(-328.932 -237.649)" fill="#ccc"/><path d="M858.088,570.078l-195.722-157.7a.718.718,0,0,1,.9-1.118l195.722,157.7a.718.718,0,1,1-.9,1.118Z" transform="translate(-350.353 -245.392)" fill="#ccc"/><path d="M843.03,588.767l-195.722-157.7a.718.718,0,1,1,.9-1.118l195.722,157.7a.718.718,0,1,1-.9,1.118Z" transform="translate(-346.108 -250.66)" fill="#ccc"/><path d="M827.972,607.455,632.25,449.753a.718.718,0,0,1,.9-1.118l195.722,157.7a.718.718,0,1,1-.9,1.118Z" transform="translate(-341.864 -255.927)" fill="#ccc"/><path d="M812.914,626.143l-195.722-157.7a.718.718,0,0,1,.9-1.118l195.721,157.7a.718.718,0,1,1-.9,1.118Z" transform="translate(-337.62 -261.195)" fill="#ccc"/><path d="M333.326,378.193h-8.21l-3.9-31.667h12.117Z" transform="translate(-90.535 -97.669)" fill="#ffb8b8"/><path d="M314.569,387.355H330.4v9.969H304.6a9.969,9.969,0,0,1,9.969-9.969Z" transform="translate(-85.853 -109.178)" fill="#2f2e41"/><path d="M216.531,378.193h-8.21l-3.9-31.667h12.117Z" transform="translate(-57.616 -97.669)" fill="#ffb8b8"/><path d="M197.775,387.355h15.834v9.969h-25.8a9.969,9.969,0,0,1,9.969-9.969Z" transform="translate(-52.934 -109.178)" fill="#2f2e41"/><path d="M487.471,233.391V229.8a23.16,23.16,0,0,1,23.16-23.16h0a23.16,23.16,0,0,1,23.16,23.16v3.591a16.7,16.7,0,0,1-16.7,16.7H504.168a16.7,16.7,0,0,1-16.7-16.7Z" transform="translate(-301.133 -187.765)" fill="#2f2e41"/><circle cx="17.638" cy="17.638" r="17.638" transform="translate(191.86 28.282)" fill="#ffb8b8"/><path d="M634.488,376.475" transform="translate(-342.57 -235.634)" fill="#ffb8b8"/><path d="M385.279,327.992a6.734,6.734,0,0,1,10.255,1.2l15.12-2.86,3.979,8.765-21.41,3.739a6.771,6.771,0,0,1-7.945-10.848Z" transform="translate(-271.723 -221.45)" fill="#ffb8b8"/><path d="M473.813,283.981l.2.3-24.795,16.334-41.838,13.36a2.519,2.519,0,0,0-1.732,2.685l.913,7.861a2.514,2.514,0,0,0,3.024,2.168l39.376-8.44a14.224,14.224,0,0,0,5.294-2.331L482.106,296.1a7.164,7.164,0,0,0-8.1-11.818Z" transform="translate(-278.065 -209.315)" fill="#ccc"/><path d="M519.411,498.709a3.245,3.245,0,0,1-2.972-1.94l-37.638-93a1.077,1.077,0,0,0-2.017.114l-30.706,90.539a3.232,3.232,0,0,1-4.224,2.076l-10.3-3.861a3.224,3.224,0,0,1-2.08-2.66c-4.632-40.354,35.764-142.214,36.172-143.238l.113-.284,36.824,8.146.077.083C517.355,370.71,529.431,471.8,531.7,491.9a3.216,3.216,0,0,1-2.134,3.409l-9.089,3.214a3.2,3.2,0,0,1-1.069.184Z" transform="translate(-284.683 -227.172)" fill="#2f2e41"/><path d="M501.686,337.413c-8.922,0-18.869-1.779-21.931-9.121l-.07-.169.1-.156c2.417-3.965,5.611-10.729,3.894-12-3.382-2.5-5.023-6.614-4.877-12.227.316-12.184,8.618-23,20.658-26.918h0a91.668,91.668,0,0,1,10.242-2.637,17.437,17.437,0,0,1,14.458,3.57,17.613,17.613,0,0,1,6.532,13.552c.126,13.021-1.878,31.156-12.145,43.606a3.194,3.194,0,0,1-1.891,1.1,87.772,87.772,0,0,1-14.966,1.4Z" transform="translate(-298.686 -206.706)" fill="#ccc"/><path d="M505.95,355.856a6.863,6.863,0,0,1,8.387-4.786,6.758,6.758,0,0,1,1.04.385l11.481-10.448,7.984,5.379-16.418,14.529a6.85,6.85,0,0,1-7.765,3.294,6.746,6.746,0,0,1-4.708-8.353Z" transform="translate(-306.269 -225.637)" fill="#ffb8b8"/><path d="M529.587,339.734a3.223,3.223,0,0,1-2.044-.729l-4.527-3.7a3.232,3.232,0,0,1,.078-5.067l18.989-14.564a1.08,1.08,0,0,0,.2-1.5l-11.72-15.495a9.541,9.541,0,0,1,.637-12.291h0a9.514,9.514,0,0,1,12.846-1.027l.074.078,12.239,17.524a10.911,10.911,0,0,1-.259,17.369L531.511,339.1A3.237,3.237,0,0,1,529.587,339.734Z" transform="translate(-310.817 -209.382)" fill="#ccc"/><path d="M497.965,231.278v-8.751l15.624-6.822,14.9,6.822v8.751a1.436,1.436,0,0,1-1.436,1.436H499.4a1.436,1.436,0,0,1-1.436-1.436Z" transform="translate(-304.091 -190.32)" fill="#2f2e41"/><path d="M518.5,200.393c-2.3-7.353,2.527-15.779,9.66-18.69s15.665-.876,21.684,3.932,9.752,12.011,11.731,19.455,2.354,15.208,2.719,22.9c8.763,1.61,14.724,12,11.688,20.38s-14.271,12.538-22.031,8.16-10.007-16.147-4.407-23.077A18.94,18.94,0,0,0,527.5,204.078C523.182,205.884,517.763,201.191,518.5,200.393Z" transform="translate(-309.715 -180.357)" fill="#2f2e41"/><path d="M368.931,266.136a75.01,75.01,0,0,1-30.412-6.661,3.212,3.212,0,0,1-1.9-2.947V230.375a3.235,3.235,0,0,1,3.232-3.232h58.17a3.235,3.235,0,0,1,3.232,3.232v26.153a3.212,3.212,0,0,1-1.9,2.947h0A75.01,75.01,0,0,1,368.931,266.136Z" transform="translate(-258.613 -193.544)" fill="#9b94db"/><path d="M362.231,234.894a3.235,3.235,0,0,1-1.256-.252L314.847,215.18a3.231,3.231,0,0,1,.11-6l46.128-17.5a3.22,3.22,0,0,1,2.306,0l45.51,17.5a3.232,3.232,0,0,1,.111,5.988L363.5,234.636a3.236,3.236,0,0,1-1.271.259Z" transform="translate(-251.921 -183.489)" fill="#9b94db"/><circle cx="4.309" cy="4.309" r="4.309" transform="translate(79.078 59.093)" fill="#3f3d56"/><path d="M409.428,220.159,363.917,239.62a2.872,2.872,0,0,1-2.246.005l-46.128-19.461a2.818,2.818,0,0,1-1.374-1.207,2.87,2.87,0,0,0,1.373,4.08L361.671,242.5a2.873,2.873,0,0,0,2.246-.005l45.511-19.461a2.871,2.871,0,0,0,1.361-4.074,2.82,2.82,0,0,1-1.361,1.2Z" transform="translate(-252.179 -191.237)" opacity="0.2"/><path d="M344.336,254.957a.718.718,0,0,0,.718-.718V230.208l23.685-8.629a.718.718,0,0,0,.021-1.436l-23.685,8.629a1.409,1.409,0,0,0-1.029.413,1.426,1.426,0,0,0-.428,1.023v24.03A.718.718,0,0,0,344.336,254.957Z" transform="translate(-260.587 -191.571)" fill="#3f3d56"/></g></svg>