<svg xmlns="http://www.w3.org/2000/svg" xmlns:xlink="http://www.w3.org/1999/xlink" width="364.472" height="475.046" viewBox="0 0 364.472 475.046"><defs><linearGradient id="a" x1="0.5" y1="1" x2="0.5" gradientUnits="objectBoundingBox"><stop offset="0" stop-color="gray" stop-opacity="0.251"/><stop offset="0.535" stop-color="gray" stop-opacity="0.122"/><stop offset="1" stop-color="gray" stop-opacity="0.102"/></linearGradient></defs><g transform="translate(0 150.999)"><path d="M252.166,649.941c0,10.659-6.337,14.381-14.153,14.381q-.273,0-.543-.007c-.362-.008-.721-.024-1.075-.049-7.055-.5-12.535-4.413-12.535-14.325,0-10.257,13.106-23.2,14.095-24.162h0l.057-.056S252.166,639.281,252.166,649.941Z" transform="translate(-192.651 -364.496)" fill="#3f3d56"/><path d="M243.628,662.691l5.177-7.233-5.19,8.026-.014.83c-.362-.008-.721-.024-1.075-.049l.558-10.664,0-.083.01-.016.052-1.007-5.2-8.047,5.218,7.292.013.213.422-8.057-4.454-8.315,4.508,6.9.439-16.7,0-.057v.056l-.073,13.172,4.433-5.222L244,640.084l-.117,7.214,4.14-6.923-4.158,7.985-.065,4.01,6.01-9.637-6.033,11.036Z" transform="translate(-198.782 -364.496)" fill="#f2f2f2"/><path d="M498.1,435.921c-3.781-13.726-24.777-23.842-41.159-26.453v-6.593q.454-.169.9-.349a14.572,14.572,0,0,0-.787-3.864,39.763,39.763,0,0,0,17.421-13.778,44.8,44.8,0,0,0-8.846-69.066,8.79,8.79,0,0,0-3.93-16.193,17.157,17.157,0,0,0-26.71-19.932A17.152,17.152,0,0,1,460.2,294.84c0,.151-.009.3-.013.449a17.154,17.154,0,1,0-33.254,6.417,8.578,8.578,0,0,0-5.678,12.565,44.8,44.8,0,0,0-10.926,71.256,39.769,39.769,0,0,0,16.158,12.8v10.99c-16.556,2.365-38.358,12.67-42.168,26.734-3.32,12.256-6.864,25.716-8.627,33.618,15.113,10.62,46.826,16.855,66.7,16.855,18.883,0,49.746-5.628,64.415-15.3C505.215,462.547,501.56,448.5,498.1,435.921ZM467.821,309.137c0,.156-.006.311-.015.465a8.579,8.579,0,0,0-7.124-7.967q.249-.422.475-.859a8.58,8.58,0,0,1,6.663,8.361Z" transform="translate(-258.766 -212.11)" fill="url(#a)"/><path d="M443.8,585.529c18.345,0,48.329-5.468,62.58-14.862-1.544-8.436-5.1-22.086-8.461-34.3-4.286-15.558-31.339-26.344-47.476-26.344H434.89c-16.188,0-43.279,10.848-47.511,26.473-3.225,11.907-6.668,24.983-8.381,32.661C393.68,579.471,424.489,585.529,443.8,585.529Z" transform="translate(-260.207 -314.113)" fill="#9b94db"/><circle cx="43.522" cy="43.522" r="43.522" transform="translate(139.774 99.079)" fill="#f55f44"/><path d="M301.238,306.181h22.771a3.407,3.407,0,0,1,3.407,3.407v23.283a13.989,13.989,0,0,1-13.989,13.989H311.82a13.989,13.989,0,0,1-13.989-13.989V309.588A3.407,3.407,0,0,1,301.238,306.181Z" transform="translate(-129.693 -133.329)" fill="#fda57d"/><path d="M483.331,491.745a38.378,38.378,0,0,0,14.3-2.756A14.175,14.175,0,0,0,483.5,475.731h-1.212a14.181,14.181,0,0,0-14.121,12.9A38.371,38.371,0,0,0,483.331,491.745Z" transform="translate(-299.034 -299.181)" opacity="0.05"/><circle cx="38.503" cy="38.503" r="38.503" transform="translate(144.869 111.859)" fill="#fda57d"/><circle cx="8.334" cy="8.334" r="8.334" transform="translate(161.998 91.671)" fill="#f55f44"/><circle cx="8.334" cy="8.334" r="8.334" transform="translate(191.63 91.671)" fill="#f55f44"/><circle cx="16.668" cy="16.668" r="16.668" transform="translate(167.553 69.447)" fill="#f55f44"/><path d="M522.476,322.1a8.3,8.3,0,0,0-4.651,1.418,8.33,8.33,0,0,1,7.45,14.758,8.329,8.329,0,0,0-2.8-16.176Z" transform="translate(-320.66 -232.281)" fill="#f55f44"/><path d="M491.642,281.094a16.6,16.6,0,0,0-10.6,3.8,16.667,16.667,0,0,1,18.423,27.578,16.666,16.666,0,0,0-7.822-31.383Z" transform="translate(-304.643 -214.425)" fill="#f55f44"/><path d="M444.05,359.456s4.63,30.558,62.967,13.89l-28.705-25Z" transform="translate(-288.534 -243.71)" fill="#f55f44"/><rect width="40.114" height="17.07" rx="8.535" transform="translate(25.533 290.746)" fill="#9b94db"/><g transform="translate(305.224 273.691)" opacity="0.7"><path d="M739.99,653.953V647.8H709.236v28.447a6,6,0,0,0,6,6h18.76a6,6,0,0,0,6-6v-6.3a8,8,0,0,0,0-15.992Zm0,12.917v-9.841a4.921,4.921,0,0,1,0,9.841Z" transform="translate(-709.236 -647.802)" fill="url(#a)"/></g><path d="M756.328,660.4a7.3,7.3,0,1,0,7.3,7.3,7.3,7.3,0,0,0-7.3-7.3Zm0,11.793a4.493,4.493,0,1,1,4.493-4.493,4.493,4.493,0,0,1-4.493,4.493Z" transform="translate(-421.339 -379.598)" fill="#9b94db"/><path d="M756.328,660.4a7.3,7.3,0,1,0,7.3,7.3,7.3,7.3,0,0,0-7.3-7.3Zm0,11.793a4.493,4.493,0,1,1,4.493-4.493,4.493,4.493,0,0,1-4.493,4.493Z" transform="translate(-421.339 -379.598)" opacity="0.1"/><path d="M543.642,487.455h28.08V513.4a5.5,5.5,0,0,1-5.5,5.5H549.146a5.5,5.5,0,0,1-5.5-5.5Z" transform="translate(-236.733 -212.266)" fill="#9b94db"/><rect width="364.472" height="12.355" transform="translate(0 306.638)" fill="#e0e0e0"/><g transform="translate(104.737 217.383)" opacity="0.7"><rect width="154.999" height="89.255" rx="14.5" fill="url(#a)"/></g><rect width="149.383" height="87.608" rx="26.835" transform="translate(107.545 219.03)" fill="#535461"/><circle cx="5.054" cy="5.054" r="5.054" transform="translate(177.182 257.78)" fill="#fff"/><rect width="333.584" height="5.054" transform="translate(15.444 318.993)" fill="#e0e0e0"/><rect width="333.584" height="1.685" transform="translate(15.444 318.993)" opacity="0.1"/><path d="M748.782,650.455v25.974a5.475,5.475,0,0,1-5.475,5.476h2.808a5.476,5.476,0,0,0,5.475-5.476V650.455Z" transform="translate(-418.848 -375.266)" opacity="0.1"/><path d="M721,612.819a1.639,1.639,0,0,0-1.24.63c-.368.668.3,1.421.908,1.879a12.081,12.081,0,0,1,3.076,2.863,3.59,3.59,0,0,1,.169,3.968c-1.092,1.481-3.7,1.8-3.949,3.621-.162,1.17.849,2.168,1.874,2.755,2.529,1.449,5.79,1.835,7.622,4.1a5.909,5.909,0,0,1,4.143-2.844c1.69-.385,3.445-.356,5.158-.617a1.784,1.784,0,0,0,1.423-.755c.479-.972-.886-2.138-.415-3.113.359-.743,1.412-.685,2.181-.982a2.84,2.84,0,0,0,1.413-3.391,6.385,6.385,0,0,0-2.415-3.136,27.053,27.053,0,0,0-9.728-4.5,24.929,24.929,0,0,0-5.171-1.2A25.835,25.835,0,0,0,721,612.819Z" transform="translate(-408.547 -358.564)" fill="#eee"/><rect width="245.28" height="168.046" transform="translate(64.65 -150.999)" fill="#535461" opacity="0.1"/><g transform="translate(87.014 -134.449)" opacity="0.5"><rect width="57.739" height="53.271" rx="4.5" fill="url(#a)"/></g><rect width="56.407" height="51.98" rx="4.5" transform="translate(87.72 -134.036)" fill="#f5f5f5"/><rect width="9.513" height="8.562" rx="4.281" transform="translate(92.067 -125.475)" fill="#9b94db"/><rect width="37.816" height="0.951" rx="0.476" transform="translate(104.433 -125.475)" fill="#e0e0e0"/><rect width="37.816" height="0.951" rx="0.476" transform="translate(104.433 -122.621)" fill="#e0e0e0"/><rect width="51.134" height="0.951" rx="0.476" transform="translate(91.115 -112.262)" fill="#e0e0e0"/><rect width="51.134" height="0.951" rx="0.476" transform="translate(91.115 -109.409)" fill="#e0e0e0"/><rect width="51.134" height="0.951" rx="0.476" transform="translate(91.115 -105.603)" fill="#e0e0e0"/><rect width="29.49" height="0.951" rx="0.476" transform="translate(91.115 -102.75)" fill="#e0e0e0"/><rect width="51.134" height="0.951" rx="0.476" transform="translate(91.115 -98.954)" fill="#e0e0e0"/><rect width="51.134" height="0.951" rx="0.476" transform="translate(91.115 -96.1)" fill="#e0e0e0"/><rect width="51.134" height="0.951" rx="0.476" transform="translate(91.115 -92.295)" fill="#e0e0e0"/><rect width="29.49" height="0.951" rx="0.476" transform="translate(91.115 -89.441)" fill="#e0e0e0"/><g transform="translate(95.729 -122.139)" opacity="0.5"><rect width="57.739" height="53.271" rx="4.5" fill="url(#a)"/></g><rect width="56.407" height="51.98" rx="4.5" transform="translate(96.433 -121.726)" fill="#fff"/><rect width="9.513" height="8.562" rx="4.281" transform="translate(100.78 -113.164)" fill="#9b94db"/><rect width="37.816" height="0.951" rx="0.476" transform="translate(113.147 -113.164)" fill="#e0e0e0"/><rect width="37.816" height="0.951" rx="0.476" transform="translate(113.147 -110.311)" fill="#e0e0e0"/><rect width="51.134" height="0.951" rx="0.476" transform="translate(99.829 -99.952)" fill="#e0e0e0"/><rect width="51.134" height="0.951" rx="0.476" transform="translate(99.829 -97.098)" fill="#e0e0e0"/><rect width="51.134" height="0.951" rx="0.476" transform="translate(99.829 -93.293)" fill="#e0e0e0"/><rect width="29.49" height="0.951" rx="0.476" transform="translate(99.829 -90.439)" fill="#e0e0e0"/><rect width="51.134" height="0.951" rx="0.476" transform="translate(99.829 -86.643)" fill="#e0e0e0"/><rect width="51.134" height="0.951" rx="0.476" transform="translate(99.829 -83.79)" fill="#e0e0e0"/><rect width="51.134" height="0.951" rx="0.476" transform="translate(99.829 -79.985)" fill="#e0e0e0"/><rect width="29.49" height="0.951" rx="0.476" transform="translate(99.829 -77.131)" fill="#e0e0e0"/><rect width="31.801" height="30.554" transform="translate(177.331 -114.08)" fill="url(#a)"/><rect width="30.803" height="29.182" transform="translate(177.83 -113.331)" fill="#f5f5f5"/><g transform="translate(187.931 -95.997)" opacity="0.6"><rect width="11.099" height="1.497" fill="#9b94db"/></g><rect width="18.956" height="1.497" transform="translate(183.753 -93.253)" fill="#bdbdbd"/><g transform="translate(223.697 -140.814)" opacity="0.5"><rect width="69.346" height="81.477" fill="url(#a)"/></g><rect width="65.739" height="78.362" transform="translate(225.829 -139.503)" fill="#fff"/><rect width="46.23" height="1.967" transform="translate(235.665 -105.122)" fill="#e0e0e0"/><rect width="46.23" height="1.967" transform="translate(235.665 -92.171)" fill="#e0e0e0"/><rect width="46.23" height="1.967" transform="translate(235.665 -88.728)" fill="#e0e0e0"/><rect width="19.509" height="1.967" transform="translate(235.665 -95.614)" fill="#e0e0e0"/><rect width="14.59" height="1.967" transform="translate(267.305 -95.614)" fill="#3ad29f" opacity="0.6"/><rect width="14.59" height="1.967" transform="translate(251.895 -80.695)" fill="#9b94db"/><g transform="translate(183.237 -36.422)" opacity="0.5"><rect width="41.204" height="33.843" fill="url(#a)"/></g><rect width="40.164" height="32.643" transform="translate(183.717 -35.782)" fill="#f2f2f2"/><rect width="40.164" height="7.281" transform="translate(183.717 -35.782)" fill="#9b94db"/><rect width="40.164" height="7.281" transform="translate(183.717 -35.782)" opacity="0.1"/><rect width="33.763" height="4.24" transform="translate(186.917 -25.861)" fill="#e0e0e0"/><rect width="24.642" height="1.44" transform="translate(186.917 -18.42)" fill="#e0e0e0"/><rect width="16.001" height="1.44" transform="translate(186.917 -15.94)" fill="#e0e0e0"/><rect width="21.122" height="1.44" transform="translate(186.917 -13.46)" fill="#e0e0e0"/><rect width="24.642" height="1.44" transform="translate(186.917 -10.98)" fill="#e0e0e0"/><rect width="8.241" height="1.44" transform="translate(186.917 -8.5)" fill="#e0e0e0"/><g transform="translate(157.437 -48.835)" opacity="0.5"><rect width="51.071" height="41.947" fill="url(#a)"/></g><rect width="49.782" height="40.46" transform="translate(158.032 -48.041)" fill="#fff"/><rect width="49.782" height="9.024" transform="translate(158.032 -48.041)" fill="#9b94db"/><rect width="41.848" height="5.256" transform="translate(161.999 -35.745)" fill="#f5f5f5"/><rect width="30.543" height="1.785" transform="translate(161.999 -26.522)" fill="#e0e0e0"/><rect width="19.833" height="1.785" transform="translate(161.999 -23.448)" fill="#e0e0e0"/><rect width="26.18" height="1.785" transform="translate(161.999 -20.374)" fill="#e0e0e0"/><rect width="30.543" height="1.785" transform="translate(161.999 -17.3)" fill="#e0e0e0"/><rect width="10.214" height="1.785" transform="translate(161.999 -14.226)" fill="#e0e0e0"/><rect width="11.9" height="1.587" transform="translate(164.181 -33.96)" fill="#69f0ae"/><circle cx="6.895" cy="6.895" r="6.895" transform="translate(258.085 199.768)" fill="#535461" opacity="0.1"/><circle cx="6.895" cy="6.895" r="6.895" transform="translate(270.891 177.604)" fill="#535461" opacity="0.1"/></g></svg>